<svg id="Layer_1" data-name="Layer 1" xmlns="http://www.w3.org/2000/svg" viewBox="0 0 101.02 101.02"><defs><style>.cls-1{fill:#7b7b7b;}</style></defs><path id="Path_8" data-name="Path 8" class="cls-1" d="M50.51.82A49.69,49.69,0,1,0,100.2,50.51,49.69,49.69,0,0,0,50.51.82ZM57,78.46H41.51V65.09H57ZM70.53,39.22c0,9.91-6.61,14.15-15.34,16.28l-.94,5H44.73l-2-13.13.63-.71c9.12-.79,12.34-2.91,12.34-6.29v-.08c0-2.67-2.12-4.33-5.89-4.33s-7.79,1.89-11.49,5.19L30.5,30.8a27.68,27.68,0,0,1,20.36-8.25c11.56,0,19.66,6.29,19.66,16.51Z"/></svg>