<svg id="Layer_1" data-name="Layer 1" xmlns="http://www.w3.org/2000/svg" viewBox="0 0 101.02 101.02"><defs><style>.cls-1{fill:#7b7b7b;}</style></defs><polygon class="cls-1" points="34.66 28.05 34.66 30.3 98.78 26.73 98.78 24.86 34.66 28.05"/><polygon class="cls-1" points="34.82 30.78 47.82 30.2 47.82 37.7 34.82 37.28 34.82 30.78"/><polygon class="cls-1" points="49.48 30.12 66.06 29.37 66.06 37.78 49.65 37.45 49.48 30.12"/><polygon class="cls-1" points="67.65 29.28 80.39 28.7 80.98 38.28 67.73 38.04 67.65 29.28"/><polygon class="cls-1" points="81.89 28.58 87.81 28.16 89.99 38.54 82.22 38.45 81.89 28.58"/><polygon class="cls-1" points="34.82 38.87 47.74 39.2 47.74 49.87 34.82 49.87 34.82 38.87"/><polygon class="cls-1" points="49.65 39.04 66.31 39.53 66.49 49.87 49.48 49.87 49.65 39.04"/><polygon class="cls-1" points="67.9 39.53 80.72 39.78 81.31 49.87 68.24 49.87 67.9 39.53"/><polygon class="cls-1" points="82.22 39.78 90.15 39.95 93.06 54.28 84.69 54.53 84.69 49.74 82.89 49.74 82.22 39.78"/><polygon class="cls-1" points="84.89 55.83 84.98 73.78 96.73 73.78 93.48 55.58 84.89 55.83"/><rect class="cls-1" x="43.28" y="61.2" width="22.87" height="4.42"/><polygon class="cls-1" points="43.28 79.42 43.28 67.07 66.15 67.07 66.15 79.42 64.64 79.42 64.64 68.66 44.77 68.66 44.77 79.42 43.28 79.42"/><rect class="cls-1" x="13.57" y="61.2" width="8.42" height="4.42"/><rect class="cls-1" x="24.07" y="61.2" width="8.57" height="4.42"/><rect class="cls-1" x="34.9" y="61.2" width="6.59" height="4.42"/><rect class="cls-1" x="13.57" y="67.07" width="8.42" height="6.09"/><rect class="cls-1" x="24.07" y="67.07" width="8.57" height="6.09"/><rect class="cls-1" x="34.9" y="67.07" width="6.59" height="6.09"/><rect class="cls-1" x="13.57" y="74.45" width="8.42" height="4.97"/><rect class="cls-1" x="24.07" y="74.45" width="8.57" height="4.97"/><rect class="cls-1" x="34.9" y="74.45" width="6.59" height="4.97"/><polygon class="cls-1" points="97.77 79.42 67.67 79.42 67.67 74.91 96.89 74.91 97.77 79.42"/><rect class="cls-1" x="2.24" y="61.2" width="9.37" height="18.22"/><polygon class="cls-1" points="14.9 46.18 16.06 46.18 15.49 44.72 14.9 46.18"/><path class="cls-1" d="M83.76,73.78,83.6,51.11H33.73V19.61H2.24V59.55H67.67V73.78ZM10.89,47.66H6.57l.23-.48,8.41-19,.1-.21H20.2l.09.21,5.92,13.49.21.49H15.55l.21-.49L17.37,38l.09-.21h2.48l-2.3-5.25L11,47.46Zm5.78,0-.33-.81H14.61l-.33.81H13.06l1.75-4h1.33l1.75,4Zm5,0h-3v-4h1.2v3h1.81Zm1.13-2.49-.35.8h-.56l1-2.22.62,1.43Zm4.48,2a1.25,1.25,0,0,1-.53.41,2.08,2.08,0,0,1-.78.15l-.3,0a2.52,2.52,0,0,1-.48-.09,3.39,3.39,0,0,1-.61-.21l.35-.78a3.18,3.18,0,0,0,.86.24.58.58,0,0,0,.4-.1.34.34,0,0,0,.09-.2.35.35,0,0,0-.15-.26,2.38,2.38,0,0,0-.45-.23,3.19,3.19,0,0,1-.58-.3,1.56,1.56,0,0,1-.4-.41,1,1,0,0,1-.16-.57,1.21,1.21,0,0,1,.16-.58,1.19,1.19,0,0,1,.48-.41,1.79,1.79,0,0,1,.79-.15,3.18,3.18,0,0,1,.62.06,1.77,1.77,0,0,1,.46.15,1.7,1.7,0,0,1,.26.12l-.33.73-.22-.11a1.57,1.57,0,0,0-.64-.14.5.5,0,0,0-.32.08.25.25,0,0,0-.1.21.22.22,0,0,0,.1.2,1.07,1.07,0,0,0,.36.21c.25.12.49.25.73.39a1.49,1.49,0,0,1,.43.4,1,1,0,0,1,.15.55,1.09,1.09,0,0,1-.19.66"/></svg>