<svg id="Layer_1" data-name="Layer 1" xmlns="http://www.w3.org/2000/svg" viewBox="0 0 101.02 101.02"><defs><style>.cls-1{fill:#7b7b7b;}</style></defs><g id="Group_6" data-name="Group 6"><path id="Path_9" data-name="Path 9" class="cls-1" d="M90.06,62.84c0-3.17,0-6.34,0-9.51,0-1,.15-1.87,1.31-2.17C91.9,51,92,50.53,92,50a42.08,42.08,0,0,0-8.53-28.58c-.45-.59-.82-1-1.67-.51a4.32,4.32,0,0,1-5.53-.77,35,35,0,0,0-12.35-8Q41.86,4.38,24.69,20.41c-.52.49-1,1-1.55,1.5a4.1,4.1,0,0,1-4.82.65c-1-.5-1.46-.28-2,.55A42.18,42.18,0,0,0,9.23,42C9,44.57,9,47.2,9,49.82a1.28,1.28,0,0,0,1,1.47,1.38,1.38,0,0,1,1,1.5c0,6.7,0,13.4,0,20.1,0,1.24-.67,1.68-2,1.55a7,7,0,0,1-6.28-6.78c-.16-3.16-.08-6.33,0-9.5a6.34,6.34,0,0,1,1.29-3.84,4,4,0,0,0,.79-2.61c0-3.93-.18-7.85.44-11.76A45.9,45.9,0,0,1,80.23,11.79,45,45,0,0,1,96,40.7a76.2,76.2,0,0,1,.33,10.68,4.8,4.8,0,0,0,.91,3.13,6,6,0,0,1,1.17,3.65c.06,3.13.15,6.28,0,9.4a7,7,0,0,1-5.85,6.82c-1.84.33-2.49-.19-2.5-2Z"/><path id="Path_10" data-name="Path 10" class="cls-1" d="M71.7,62.75c0-3.82,0-7.64,0-11.45,0-4.21,2.92-7.27,6.91-7.32a7,7,0,0,1,7.32,6.68c0,.16,0,.32,0,.48q.09,11.67,0,23.34a7.13,7.13,0,1,1-14.25,0Q71.71,68.65,71.7,62.75Z"/><path id="Path_11" data-name="Path 11" class="cls-1" d="M29.34,62.86c0,3.93,0,7.86,0,11.78a7.1,7.1,0,0,1-11.26,5.79,6.76,6.76,0,0,1-3-5.74c-.06-7.93-.1-15.85,0-23.77a7.11,7.11,0,0,1,14.21.27c0,2,0,3.89,0,5.84v5.83Z"/><path id="Path_12" data-name="Path 12" class="cls-1" d="M64.74,100.18c-1.12,0-2.24,0-3.35,0a5,5,0,0,1-5-4.78A5,5,0,0,1,60.8,90l.2,0a46.65,46.65,0,0,1,7.66,0,4.84,4.84,0,0,1,3.87,2.28,1.14,1.14,0,0,0,1.51.55l.12-.07A30.17,30.17,0,0,0,89,80.63a7.87,7.87,0,0,1,.73-1.08,1.25,1.25,0,0,1,2.11,1.3,14,14,0,0,1-1.49,2.5A32.3,32.3,0,0,1,74.8,95.26,2.86,2.86,0,0,0,72.94,97a5,5,0,0,1-4.75,3.17C67.05,100.23,65.89,100.18,64.74,100.18Z"/></g></svg>